<?xml version="1.0" encoding="utf-8"?>
<!-- Generator: Adobe Illustrator 23.0.1, SVG Export Plug-In . SVG Version: 6.00 Build 0)  -->
<svg version="1.1" id="Layer_1" xmlns="http://www.w3.org/2000/svg" xmlns:xlink="http://www.w3.org/1999/xlink" x="0px" y="0px"
	 viewBox="0 0 754 122.5" style="enable-background:new 0 0 754 122.5;" xml:space="preserve">
<style type="text/css">
	.st0{fill:#313146;}
	.st1{fill:#FFFFFF;}
</style>
<path class="st0" d="M740.9,122.5H13.1c-7.2,0-13.1-5.9-13.1-13.1V13.1C0,5.9,5.9,0,13.1,0h727.8c7.2,0,13.1,5.9,13.1,13.1v96.3
	C754,116.6,748.1,122.5,740.9,122.5z"/>
<g>
	<title></title>
	<path class="st1" d="M640.9,61.9c0,12.7-4.3,24-13.2,33.9c-3.2,3.7-5.8,5.5-7.6,5.5c-0.6,0-1.3-0.2-1.8-0.6
		c-0.5-0.5-0.8-1.1-0.8-1.8c0-1,1.1-2.4,3.4-4.5c9.2-8.8,13.8-19.8,13.8-32.8c0-14.5-4.8-26.2-14.3-35.2c-1.9-1.7-2.9-3.2-2.9-4.3
		c0-0.6,0.3-1.3,0.8-1.8s1.1-0.8,1.8-0.8c2.1,0,5.3,2.6,9.4,7.8C637.2,36.9,641,48.5,640.9,61.9L640.9,61.9z M519.2,58.6
		c0-12.7,4.3-24,13.2-33.9c3.2-3.7,5.8-5.5,7.6-5.5c0.6,0,1.3,0.2,1.7,0.6c0.5,0.5,0.8,1,0.8,1.6c0,1-1.1,2.4-3.4,4.7
		c-9,8.9-13.8,19.8-13.8,32.8c0,14.5,4.8,26.2,14.3,35.2c1.9,1.7,2.9,3.2,2.9,4.3c0,0.6-0.3,1.3-0.8,1.8s-1.1,0.8-1.8,0.8
		c-2.2,0-5.2-2.6-9.3-7.7C522.9,83.9,519.2,72.3,519.2,58.6z M609,93.8h-55.8c-2.1,0-3.9-2-3.3-4.5c0.4-1.5,1.8-2.5,3.4-2.5H609
		c1.8,0,3.4,1.5,3.4,3.5S611,93.8,609,93.8z M578.6,48.2c1-0.1,1.7,3.1,1.8,3.8c0.2,1.8-0.4,3.5-1.2,5.1c-3,5.9-10,10.7-8.2,18.2
		c0.8,3.2,2.5,5.5,7.7,8.2c-1.8,0.6-4.2-0.6-5.6-1.5c-6.1-4.1-10-10.9-9.6-18.4c0.2-2.4,0.6-4.7,1.2-6.9c1.9-6.5,5.8-12.2,8.1-18.5
		c1.1-3,2-6.7,1.1-9.9c-0.5-1.6-1.3-3-2.4-4.3c-0.3-0.4-2.1-2.4-2.7-2.1c3-1.1,5.8-0.1,8.4,1.5c2.1,1.2,3.7,3,4.9,5
		c2.3,3.7,3.2,7.8,3.7,12.1c0.2,1.8-0.1,6,2,6.9s3.8-2.7,4.3-4.1c1-3.3-0.3-6.4-1.6-9.4c0.3,0.6,1.4,1.3,2,1.8l1.8,1.7
		c2.2,2.3,3.6,5.1,4.5,8.1c0.8,2.7,1.2,5.5,1.4,8.3c0.4,5.7-0.9,11.6-3.2,16.8c-1,2.4-2.3,4.6-4,6.5c-1.6,1.9-3.8,3.1-5.5,4.9
		c4.1-4.1,6.3-10.8,5.7-15.9c-0.3-2.8-1.2-5.4-3.3-8c0,0,0.2,1.8,0.4,3c0.4,2.5-1.3,5.2-3.3,4.9c-1.4-0.1-0.7-3.3-0.5-4.3
		c0.5-3-0.2-5.9-1.2-8.6c-1.1-2.6-3-4.6-6.1-4.2C579.1,48.6,578.6,48.2,578.6,48.2z"/>
</g>
<g>
	<path class="st1" d="M170.7,18c-2.7-0.6-4.9-0.8-6.9-0.8c-4.6,0-6.8,2.4-6.8,7.2v5.1h12.8v4.2H157v20.7h-5.2V33.6h-9.4v-4.2h9.4
		v-4.8c0-7.8,4.1-11.7,12.2-11.7c2,0,4.2,0.2,6.7,0.7V18z"/>
	<path class="st1" d="M175.8,25.2h4.6l0.1,5.4c1.7-2.1,3.4-3.6,5.1-4.5c1.7-0.9,3.4-1.4,5.1-1.4c3,0,5.3,1,6.9,2.9
		c1.6,2,2.3,4.9,2.2,8.7h-5.1c0.1-2.6-0.3-4.4-1.1-5.6s-2-1.7-3.5-1.7c-0.7,0-1.4,0.1-2.1,0.4c-0.7,0.2-1.4,0.6-2.1,1.2
		c-0.7,0.5-1.5,1.2-2.3,2.1c-0.8,0.8-1.7,1.8-2.6,3v18.8h-5.1L175.8,25.2L175.8,25.2z"/>
	<path class="st1" d="M229.1,38.2c0,0.7,0,1.3,0,1.8s0,0.9-0.1,1.4h-20.5c0,3,0.8,5.3,2.5,6.9c1.7,1.6,4.1,2.4,7.2,2.4
		c0.9,0,1.7,0,2.6-0.1c0.9-0.1,1.7-0.2,2.5-0.3s1.6-0.2,2.3-0.4c0.7-0.1,1.4-0.3,2-0.5v4.2c-1.4,0.4-2.9,0.7-4.7,0.9
		c-1.7,0.2-3.5,0.4-5.4,0.4c-2.5,0-4.7-0.3-6.5-1s-3.3-1.7-4.4-3c-1.2-1.3-2-2.9-2.6-4.7c-0.6-1.9-0.8-4-0.8-6.4
		c0-2.1,0.3-4,0.9-5.8c0.6-1.8,1.5-3.4,2.6-4.8s2.5-2.5,4.2-3.3c1.6-0.8,3.5-1.2,5.6-1.2c2,0,3.8,0.3,5.4,1s2.9,1.5,4,2.7
		s1.9,2.6,2.4,4.3C228.8,34.3,229.1,36.1,229.1,38.2z M223.9,37.5c0.1-1.3-0.1-2.5-0.4-3.6c-0.3-1.1-0.8-2-1.4-2.8
		c-0.7-0.8-1.5-1.4-2.4-1.8c-1-0.4-2.1-0.7-3.4-0.7c-1.1,0-2.1,0.2-3,0.6s-1.7,1-2.4,1.8s-1.2,1.7-1.6,2.8c-0.4,1.1-0.7,2.3-0.8,3.6
		L223.9,37.5L223.9,37.5z"/>
	<path class="st1" d="M259,38.2c0,0.7,0,1.3,0,1.8s0,0.9-0.1,1.4h-20.5c0,3,0.8,5.3,2.5,6.9c1.7,1.6,4.1,2.4,7.2,2.4
		c0.9,0,1.7,0,2.6-0.1c0.9-0.1,1.7-0.2,2.5-0.3s1.6-0.2,2.3-0.4c0.7-0.1,1.4-0.3,2-0.5v4.2c-1.4,0.4-2.9,0.7-4.7,0.9
		c-1.7,0.2-3.5,0.4-5.4,0.4c-2.5,0-4.7-0.3-6.5-1s-3.3-1.7-4.4-3c-1.2-1.3-2-2.9-2.6-4.7c-0.6-1.9-0.8-4-0.8-6.4
		c0-2.1,0.3-4,0.9-5.8c0.6-1.8,1.5-3.4,2.6-4.8s2.5-2.5,4.2-3.3c1.6-0.8,3.5-1.2,5.6-1.2c2,0,3.8,0.3,5.4,1c1.6,0.6,2.9,1.5,4,2.7
		c1.1,1.2,1.9,2.6,2.4,4.3C258.7,34.3,259,36.1,259,38.2z M253.7,37.5c0.1-1.3-0.1-2.5-0.4-3.6c-0.3-1.1-0.8-2-1.4-2.8
		c-0.6-0.8-1.5-1.4-2.4-1.8c-1-0.4-2.1-0.7-3.4-0.7c-1.1,0-2.1,0.2-3,0.6s-1.7,1-2.4,1.8s-1.2,1.7-1.6,2.8c-0.4,1.1-0.7,2.3-0.8,3.6
		L253.7,37.5L253.7,37.5z"/>
	<path class="st1" d="M288.4,52.9c-3,1.3-6.2,1.9-9.6,1.9c-5.4,0-9.5-1.6-12.4-4.8s-4.3-8-4.3-14.2c0-3,0.4-5.8,1.2-8.3
		c0.8-2.5,1.9-4.6,3.4-6.3s3.3-3,5.4-4c2.1-0.9,4.4-1.4,7-1.4c1.8,0,3.4,0.2,4.9,0.5s3,0.8,4.4,1.4v5.1c-1.4-0.8-2.8-1.3-4.3-1.7
		c-1.5-0.4-3.1-0.6-4.8-0.6c-1.8,0-3.4,0.3-4.8,1s-2.7,1.6-3.7,2.9s-1.8,2.8-2.3,4.7c-0.5,1.8-0.8,3.9-0.8,6.3c0,4.9,1,8.6,3,11.1
		s4.9,3.8,8.8,3.8c1.6,0,3.2-0.2,4.7-0.6c1.5-0.4,2.9-0.9,4.3-1.6v4.8H288.4z"/>
	<path class="st1" d="M319.4,39.5c0,2.3-0.3,4.3-1,6.2c-0.6,1.9-1.6,3.5-2.8,4.9c-1.2,1.3-2.7,2.4-4.4,3.1c-1.7,0.7-3.7,1.1-5.9,1.1
		c-2.1,0-4-0.3-5.6-1c-1.7-0.6-3.1-1.6-4.2-2.9c-1.2-1.3-2-2.8-2.6-4.7s-0.9-4-0.9-6.4c0-2.3,0.3-4.3,1-6.2c0.6-1.9,1.6-3.5,2.8-4.8
		c1.2-1.3,2.7-2.4,4.4-3.1c1.7-0.7,3.7-1.1,5.9-1.1c2.1,0,4,0.3,5.6,1c1.7,0.7,3.1,1.6,4.2,2.9c1.2,1.3,2,2.8,2.6,4.7
		C319.1,35,319.4,37.1,319.4,39.5z M314.2,39.8c0-1.8-0.2-3.4-0.6-4.7s-1-2.5-1.7-3.4s-1.6-1.6-2.7-2c-1.1-0.5-2.2-0.7-3.5-0.7
		c-1.5,0-2.8,0.3-3.9,0.9s-2,1.4-2.6,2.4c-0.7,1-1.2,2.1-1.5,3.4c-0.3,1.3-0.5,2.7-0.5,4.1c0,1.8,0.2,3.4,0.6,4.7
		c0.4,1.4,1,2.5,1.7,3.4s1.6,1.6,2.7,2c1,0.5,2.2,0.7,3.5,0.7c1.5,0,2.8-0.3,3.9-0.9c1.1-0.6,2-1.4,2.6-2.4c0.7-1,1.2-2.1,1.5-3.4
		C314.1,42.6,314.2,41.2,314.2,39.8z"/>
	<path class="st1" d="M322.3,40.4c0-2.5,0.3-4.7,1-6.6c0.7-1.9,1.6-3.6,2.9-4.9s2.8-2.3,4.5-3c1.8-0.7,3.7-1,5.9-1
		c0.9,0,1.8,0.1,2.7,0.2c0.9,0.1,1.8,0.3,2.7,0.6V13.3h5.1v41.1h-4.5l-0.2-5.5c-1.4,2.1-2.9,3.6-4.6,4.6c-1.6,1-3.4,1.5-5.4,1.5
		c-1.7,0-3.1-0.3-4.4-1s-2.3-1.7-3.2-3c-0.8-1.3-1.5-2.8-1.9-4.6C322.5,44.5,322.3,42.5,322.3,40.4z M327.5,40
		c0,3.5,0.5,6.2,1.6,7.9c1,1.7,2.5,2.6,4.4,2.6c1.3,0,2.6-0.6,4.1-1.7c1.4-1.1,2.9-2.8,4.5-5.1V30.2c-0.8-0.4-1.8-0.7-2.8-0.9
		c-1-0.2-2-0.3-3-0.3c-2.8,0-4.9,0.9-6.4,2.7C328.3,33.5,327.5,36.2,327.5,40z"/>
	<path class="st1" d="M378.3,38.2c0,0.7,0,1.3,0,1.8s0,0.9-0.1,1.4h-20.5c0,3,0.8,5.3,2.5,6.9c1.7,1.6,4.1,2.4,7.2,2.4
		c0.9,0,1.7,0,2.6-0.1s1.7-0.2,2.5-0.3s1.6-0.2,2.3-0.4c0.7-0.1,1.4-0.3,2-0.5v4.2c-1.4,0.4-2.9,0.7-4.7,0.9
		c-1.7,0.2-3.5,0.4-5.4,0.4c-2.5,0-4.7-0.3-6.5-1s-3.3-1.7-4.4-3c-1.2-1.3-2-2.9-2.6-4.7c-0.6-1.9-0.8-4-0.8-6.4
		c0-2.1,0.3-4,0.9-5.8s1.5-3.4,2.6-4.8s2.5-2.5,4.2-3.3c1.6-0.8,3.5-1.2,5.6-1.2c2,0,3.8,0.3,5.4,1s2.9,1.5,4,2.7s1.9,2.6,2.4,4.3
		C378.1,34.3,378.3,36.1,378.3,38.2z M373.1,37.5c0.1-1.3-0.1-2.5-0.4-3.6s-0.8-2-1.4-2.8s-1.5-1.4-2.4-1.8c-1-0.4-2.1-0.7-3.4-0.7
		c-1.1,0-2.1,0.2-3,0.6s-1.7,1-2.4,1.8c-0.7,0.8-1.2,1.7-1.6,2.8c-0.4,1.1-0.7,2.3-0.8,3.6L373.1,37.5L373.1,37.5z"/>
	<path class="st1" d="M407.8,52.9c-3,1.3-6.2,1.9-9.6,1.9c-5.4,0-9.5-1.6-12.4-4.8s-4.3-8-4.3-14.2c0-3,0.4-5.8,1.2-8.3
		c0.8-2.5,1.9-4.6,3.4-6.3c1.5-1.7,3.3-3,5.4-4c2.1-0.9,4.4-1.4,7-1.4c1.8,0,3.4,0.2,4.9,0.5s3,0.8,4.4,1.4v5.1
		c-1.4-0.8-2.8-1.3-4.3-1.7c-1.5-0.4-3.1-0.6-4.8-0.6c-1.8,0-3.4,0.3-4.8,1s-2.7,1.6-3.7,2.9s-1.8,2.8-2.3,4.7
		c-0.5,1.8-0.8,3.9-0.8,6.3c0,4.9,1,8.6,3,11.1s4.9,3.8,8.8,3.8c1.6,0,3.2-0.2,4.7-0.6c1.5-0.4,2.9-0.9,4.3-1.6v4.8H407.8z"/>
	<path class="st1" d="M432.1,54.4l-0.1-3.9c-1.6,1.6-3.2,2.7-4.8,3.4c-1.6,0.7-3.4,1-5.2,1c-1.7,0-3.1-0.2-4.3-0.6
		c-1.2-0.4-2.2-1-2.9-1.8c-0.8-0.7-1.3-1.6-1.7-2.6c-0.4-1-0.5-2.1-0.5-3.3c0-2.9,1.1-5.2,3.3-6.9c2.2-1.7,5.4-2.5,9.7-2.5h6.1v-2.6
		c0-1.7-0.6-3.1-1.7-4.1s-2.8-1.6-5.1-1.6c-1.6,0-3.3,0.2-4.9,0.6s-3.3,0.9-5,1.6v-4.6c0.6-0.2,1.4-0.5,2.1-0.7
		c0.8-0.2,1.6-0.4,2.5-0.6s1.8-0.3,2.7-0.4c0.9-0.1,1.9-0.2,2.9-0.2c1.8,0,3.4,0.2,4.8,0.6s2.6,1,3.6,1.8s1.7,1.8,2.3,3
		c0.5,1.2,0.8,2.6,0.8,4.2v20.1L432.1,54.4L432.1,54.4z M431.6,41.1h-6.4c-1.3,0-2.3,0.1-3.3,0.4c-0.9,0.3-1.7,0.6-2.2,1.1
		c-0.6,0.5-1,1-1.3,1.7s-0.4,1.4-0.4,2.2c0,0.6,0.1,1.1,0.3,1.6c0.2,0.5,0.5,1,0.8,1.4c0.4,0.4,0.9,0.7,1.5,0.9s1.4,0.3,2.3,0.3
		c1.2,0,2.5-0.4,4-1.1c1.5-0.7,3.1-1.8,4.8-3.4L431.6,41.1L431.6,41.1z"/>
	<path class="st1" d="M464,54.4v-21c0-0.9,0-1.7-0.1-2.2c-0.1-0.6-0.2-1-0.3-1.4c-0.1-0.3-0.3-0.6-0.6-0.7c-0.2-0.1-0.5-0.2-0.8-0.2
		c-0.4,0-0.7,0.1-1.1,0.3c-0.3,0.2-0.7,0.6-1.1,1.1s-0.8,1.2-1.3,2.1c-0.5,0.9-1,1.9-1.6,3.2v18.8h-4.6V33.9c0-1.1,0-1.9-0.1-2.6
		c-0.1-0.7-0.2-1.2-0.3-1.5c-0.1-0.4-0.3-0.6-0.6-0.8c-0.2-0.1-0.5-0.2-0.8-0.2s-0.7,0.1-1,0.3c-0.3,0.2-0.7,0.5-1,1
		c-0.4,0.5-0.8,1.2-1.3,2.1c-0.5,0.9-1,2-1.7,3.3v18.8H441V25.2h3.9l0.2,5.6c0.5-1.1,1-2,1.5-2.8s1-1.4,1.5-1.9s1-0.8,1.6-1
		s1.2-0.3,1.9-0.3c1.6,0,2.8,0.5,3.6,1.5c0.8,1,1.2,2.6,1.2,4.8c0.5-1,0.9-1.9,1.4-2.7c0.4-0.8,0.9-1.4,1.4-2
		c0.5-0.5,1.1-0.9,1.7-1.2c0.6-0.3,1.3-0.4,2.2-0.4c3.7,0,5.5,2.8,5.5,8.5v21.3H464V54.4z"/>
	<path class="st1" d="M498,39.2c0,2.6-0.4,4.9-1.1,6.8c-0.7,1.9-1.7,3.5-3,4.8s-2.8,2.2-4.5,2.9s-3.6,1-5.7,1c-0.9,0-1.9,0-2.8-0.1
		s-1.9-0.3-2.8-0.5v12.2H473V25.2h4.5l0.3,4.9c1.5-2,3-3.4,4.7-4.2c1.6-0.8,3.4-1.2,5.4-1.2c1.7,0,3.1,0.3,4.4,1s2.3,1.7,3.2,3
		c0.9,1.3,1.5,2.8,1.9,4.6C497.8,35,498,37,498,39.2z M492.8,39.5c0-1.5-0.1-2.9-0.3-4.2c-0.2-1.3-0.6-2.4-1.1-3.3
		c-0.5-0.9-1.1-1.6-1.9-2.1s-1.7-0.8-2.7-0.8c-0.6,0-1.3,0.1-1.9,0.3c-0.7,0.2-1.3,0.5-2.1,1c-0.7,0.5-1.5,1.1-2.2,1.9
		c-0.8,0.8-1.6,1.8-2.5,2.9v14.2c0.9,0.4,1.9,0.7,2.9,0.9s2,0.3,3,0.3c2.7,0,4.9-0.9,6.4-2.8C492,46,492.8,43.2,492.8,39.5z"/>
</g>
<g>
	<path class="st1" d="M249.9,105.3V71.6h4.8l10.8,17.1c2.5,4,4.5,7.5,6.1,11l0.1,0c-0.4-4.5-0.5-8.6-0.5-13.9V71.6h4.1v33.7h-4.4
		l-10.7-17.1c-2.4-3.8-4.6-7.6-6.3-11.3l-0.2,0c0.3,4.3,0.4,8.3,0.4,13.9v14.4H249.9z"/>
	<path class="st1" d="M311.6,88.1c0,11.6-7.1,17.8-15.7,17.8c-8.9,0-15.2-6.9-15.2-17.1c0-10.7,6.7-17.7,15.7-17.7
		C305.6,71,311.6,78.1,311.6,88.1z M285.4,88.6c0,7.2,3.9,13.7,10.8,13.7c6.9,0,10.8-6.4,10.8-14c0-6.7-3.5-13.7-10.8-13.7
		C289,74.6,285.4,81.2,285.4,88.6z"/>
	<path class="st1" d="M322.4,75.3h-10.3v-3.7h25v3.7h-10.3v30h-4.4V75.3z"/>
	<path class="st1" d="M358.3,89.5h-13.1v12.2h14.6v3.7h-19V71.6H359v3.7h-13.9v10.7h13.1V89.5z"/>
	<path class="st1" d="M364.8,100c2,1.2,4.8,2.2,7.8,2.2c4.5,0,7-2.3,7-5.8c0-3.2-1.8-5-6.3-6.7c-5.5-2-8.9-4.8-8.9-9.6
		c0-5.3,4.4-9.2,10.9-9.2c3.5,0,6,0.8,7.5,1.7l-1.2,3.5c-1.1-0.6-3.4-1.6-6.4-1.6c-4.6,0-6.4,2.8-6.4,5.1c0,3.2,2.1,4.7,6.7,6.5
		c5.7,2.2,8.6,5,8.6,9.9c0,5.2-3.8,9.7-11.8,9.7c-3.3,0-6.8-1-8.6-2.2L364.8,100z"/>
</g>
</svg>
